<mxfile host="app.diagrams.net" agent="Mozilla/5.0 (Windows NT 10.0; Win64; x64) AppleWebKit/537.36 (KHTML, like Gecko) Chrome/125.0.0.0 Safari/537.36" version="24.7.16">
  <diagram name="Página-1" id="7HHkv8Iho1S9iVRRaGcc">
    <mxGraphModel>
      <root>
        <mxCell id="0" />
        <mxCell id="1" parent="0" />
        <mxCell id="2" value="Inicio" style="ellipse;aspect=fixed;strokeWidth=2;whiteSpace=wrap;" vertex="1" parent="1">
          <mxGeometry x="8" y="548" width="54" height="54" as="geometry" />
        </mxCell>
        <mxCell id="3" value="Analizar necesidades del sistema" style="rounded=1;arcSize=40;strokeWidth=2" vertex="1" parent="1">
          <mxGeometry x="112" y="541" width="208" height="67" as="geometry" />
        </mxCell>
        <mxCell id="4" value="Necesidades satisfechas?" style="rhombus;strokeWidth=2;whiteSpace=wrap;" vertex="1" parent="1">
          <mxGeometry x="370" y="313" width="226" height="226" as="geometry" />
        </mxCell>
        <mxCell id="5" value="Seleccionar herramientas" style="rounded=1;arcSize=40;strokeWidth=2" vertex="1" parent="1">
          <mxGeometry x="670" y="359" width="212" height="49" as="geometry" />
        </mxCell>
        <mxCell id="6" value="Planificar implementación" style="whiteSpace=wrap;strokeWidth=2;" vertex="1" parent="1">
          <mxGeometry x="932" y="359" width="249" height="49" as="geometry" />
        </mxCell>
        <mxCell id="7" value="Implementación exitosa?" style="rhombus;strokeWidth=2;whiteSpace=wrap;" vertex="1" parent="1">
          <mxGeometry x="1231" y="161" width="226" height="226" as="geometry" />
        </mxCell>
        <mxCell id="8" value="Pruebas y validación" style="rounded=1;arcSize=40;strokeWidth=2" vertex="1" parent="1">
          <mxGeometry x="1532" y="228" width="176" height="49" as="geometry" />
        </mxCell>
        <mxCell id="9" value="Aprobación de pruebas?" style="rhombus;strokeWidth=2;whiteSpace=wrap;" vertex="1" parent="1">
          <mxGeometry x="1784" y="127" width="220" height="220" as="geometry" />
        </mxCell>
        <mxCell id="10" value="Despliegue en producción" style="rounded=1;arcSize=40;strokeWidth=2" vertex="1" parent="1">
          <mxGeometry x="2077" y="191" width="214" height="49" as="geometry" />
        </mxCell>
        <mxCell id="11" value="Sistema en funcionamiento?" style="rhombus;strokeWidth=2;whiteSpace=wrap;" vertex="1" parent="1">
          <mxGeometry x="2341" y="123" width="184" height="184" as="geometry" />
        </mxCell>
        <mxCell id="12" value="Entrenamiento del personal" style="rounded=1;arcSize=40;strokeWidth=2" vertex="1" parent="1">
          <mxGeometry x="2598" y="169" width="229" height="49" as="geometry" />
        </mxCell>
        <mxCell id="13" value="Personal capacitado?" style="rhombus;strokeWidth=2;whiteSpace=wrap;" vertex="1" parent="1">
          <mxGeometry x="2907" y="8" width="198" height="198" as="geometry" />
        </mxCell>
        <mxCell id="14" value="Finalización del proyecto" style="rounded=1;arcSize=40;strokeWidth=2" vertex="1" parent="1">
          <mxGeometry x="3185" y="61" width="211" height="49" as="geometry" />
        </mxCell>
        <mxCell id="15" value="Reevaluar necesidades" style="rounded=1;arcSize=40;strokeWidth=2" vertex="1" parent="1">
          <mxGeometry x="680" y="550" width="192" height="49" as="geometry" />
        </mxCell>
        <mxCell id="16" value="Identificar y corregir problemas" style="rounded=1;arcSize=40;strokeWidth=2" vertex="1" parent="1">
          <mxGeometry x="1531" y="412" width="180" height="67" as="geometry" />
        </mxCell>
        <mxCell id="17" value="Repetir pruebas y validación" style="rounded=1;arcSize=40;strokeWidth=2" vertex="1" parent="1">
          <mxGeometry x="1815" y="397" width="157" height="67" as="geometry" />
        </mxCell>
        <mxCell id="18" value="Realizar ajustes" style="rounded=1;arcSize=40;strokeWidth=2" vertex="1" parent="1">
          <mxGeometry x="2112" y="473" width="144" height="49" as="geometry" />
        </mxCell>
        <mxCell id="19" value="Resolver problemas en funcionamiento" style="rounded=1;arcSize=40;strokeWidth=2" vertex="1" parent="1">
          <mxGeometry x="2617" y="268" width="192" height="67" as="geometry" />
        </mxCell>
        <mxCell id="20" value="Continuar entrenamiento" style="rounded=1;arcSize=40;strokeWidth=2" vertex="1" parent="1">
          <mxGeometry x="2901" y="256" width="211" height="49" as="geometry" />
        </mxCell>
        <mxCell id="21" value="Reevaluar capacitación" style="rounded=1;arcSize=40;strokeWidth=2" vertex="1" parent="1">
          <mxGeometry x="3192" y="300" width="196" height="49" as="geometry" />
        </mxCell>
        <mxCell id="22" value="Fin" style="ellipse;aspect=fixed;strokeWidth=2;whiteSpace=wrap;" vertex="1" parent="1">
          <mxGeometry x="3446" y="67" width="37" height="37" as="geometry" />
        </mxCell>
        <mxCell id="23" value="" style="curved=1;startArrow=none;endArrow=block;exitX=1;exitY=0.49;entryX=0;entryY=0.5;" edge="1" parent="1" source="2" target="3">
          <mxGeometry relative="1" as="geometry">
            <Array as="points" />
          </mxGeometry>
        </mxCell>
        <mxCell id="24" value="" style="curved=1;startArrow=none;endArrow=block;exitX=0.64;exitY=0.01;entryX=0;entryY=0.5;" edge="1" parent="1" source="3" target="4">
          <mxGeometry relative="1" as="geometry">
            <Array as="points">
              <mxPoint x="345" y="426" />
            </Array>
          </mxGeometry>
        </mxCell>
        <mxCell id="25" value="Sí" style="curved=1;startArrow=none;endArrow=block;exitX=1;exitY=0.36;entryX=0;entryY=0.5;" edge="1" parent="1" source="4" target="5">
          <mxGeometry relative="1" as="geometry">
            <Array as="points">
              <mxPoint x="633" y="383" />
            </Array>
          </mxGeometry>
        </mxCell>
        <mxCell id="26" value="" style="curved=1;startArrow=none;endArrow=block;exitX=1;exitY=0.5;entryX=0;entryY=0.5;" edge="1" parent="1" source="5" target="6">
          <mxGeometry relative="1" as="geometry">
            <Array as="points" />
          </mxGeometry>
        </mxCell>
        <mxCell id="27" value="" style="curved=1;startArrow=none;endArrow=block;exitX=0.64;exitY=0;entryX=0;entryY=0.5;" edge="1" parent="1" source="6" target="7">
          <mxGeometry relative="1" as="geometry">
            <Array as="points">
              <mxPoint x="1206" y="274" />
            </Array>
          </mxGeometry>
        </mxCell>
        <mxCell id="28" value="Sí" style="curved=1;startArrow=none;endArrow=block;exitX=1;exitY=0.43;entryX=0;entryY=0.5;" edge="1" parent="1" source="7" target="8">
          <mxGeometry relative="1" as="geometry">
            <Array as="points">
              <mxPoint x="1494" y="253" />
            </Array>
          </mxGeometry>
        </mxCell>
        <mxCell id="29" value="" style="curved=1;startArrow=none;endArrow=block;exitX=1;exitY=0.28;entryX=0;entryY=0.5;" edge="1" parent="1" source="8" target="9">
          <mxGeometry relative="1" as="geometry">
            <Array as="points">
              <mxPoint x="1747" y="237" />
            </Array>
          </mxGeometry>
        </mxCell>
        <mxCell id="30" value="Sí" style="curved=1;startArrow=none;endArrow=block;exitX=1;exitY=0.43;entryX=0;entryY=0.5;" edge="1" parent="1" source="9" target="10">
          <mxGeometry relative="1" as="geometry">
            <Array as="points">
              <mxPoint x="2040" y="215" />
            </Array>
          </mxGeometry>
        </mxCell>
        <mxCell id="31" value="" style="curved=1;startArrow=none;endArrow=block;exitX=1;exitY=0.5;entryX=0;entryY=0.5;" edge="1" parent="1" source="10" target="11">
          <mxGeometry relative="1" as="geometry">
            <Array as="points" />
          </mxGeometry>
        </mxCell>
        <mxCell id="32" value="Sí" style="curved=1;startArrow=none;endArrow=block;exitX=1;exitY=0.42;entryX=0;entryY=0.51;" edge="1" parent="1" source="11" target="12">
          <mxGeometry relative="1" as="geometry">
            <Array as="points">
              <mxPoint x="2562" y="194" />
            </Array>
          </mxGeometry>
        </mxCell>
        <mxCell id="33" value="" style="curved=1;startArrow=none;endArrow=block;exitX=0.69;exitY=0.01;entryX=0;entryY=0.5;" edge="1" parent="1" source="12" target="13">
          <mxGeometry relative="1" as="geometry">
            <Array as="points">
              <mxPoint x="2864" y="107" />
            </Array>
          </mxGeometry>
        </mxCell>
        <mxCell id="34" value="Sí" style="curved=1;startArrow=none;endArrow=block;exitX=1;exitY=0.42;entryX=0;entryY=0.5;" edge="1" parent="1" source="13" target="14">
          <mxGeometry relative="1" as="geometry">
            <Array as="points">
              <mxPoint x="3148" y="86" />
            </Array>
          </mxGeometry>
        </mxCell>
        <mxCell id="35" value="No" style="curved=1;startArrow=none;endArrow=block;exitX=1;exitY=0.51;entryX=0.38;entryY=0;" edge="1" parent="1" source="4" target="15">
          <mxGeometry relative="1" as="geometry">
            <Array as="points">
              <mxPoint x="633" y="428" />
            </Array>
          </mxGeometry>
        </mxCell>
        <mxCell id="36" value="" style="curved=1;startArrow=none;endArrow=block;exitX=0;exitY=0.5;entryX=1;entryY=0.5;" edge="1" parent="1" source="15" target="3">
          <mxGeometry relative="1" as="geometry">
            <Array as="points" />
          </mxGeometry>
        </mxCell>
        <mxCell id="37" value="No" style="curved=1;startArrow=none;endArrow=block;exitX=1;exitY=0.82;entryX=0.18;entryY=-0.01;" edge="1" parent="1" source="7" target="16">
          <mxGeometry relative="1" as="geometry">
            <Array as="points">
              <mxPoint x="1494" y="371" />
            </Array>
          </mxGeometry>
        </mxCell>
        <mxCell id="38" value="" style="curved=1;startArrow=none;endArrow=block;exitX=0;exitY=0.75;entryX=0.67;entryY=1;" edge="1" parent="1" source="16" target="6">
          <mxGeometry relative="1" as="geometry">
            <Array as="points">
              <mxPoint x="1494" y="469" />
              <mxPoint x="1206" y="469" />
            </Array>
          </mxGeometry>
        </mxCell>
        <mxCell id="39" value="No" style="curved=1;startArrow=none;endArrow=block;exitX=0.68;exitY=1;entryX=0.12;entryY=0;" edge="1" parent="1" source="8" target="17">
          <mxGeometry relative="1" as="geometry">
            <Array as="points">
              <mxPoint x="1747" y="349" />
            </Array>
          </mxGeometry>
        </mxCell>
        <mxCell id="40" value="" style="curved=1;startArrow=none;endArrow=block;exitX=0;exitY=0.69;entryX=0.59;entryY=1;" edge="1" parent="1" source="17" target="8">
          <mxGeometry relative="1" as="geometry">
            <Array as="points">
              <mxPoint x="1747" y="454" />
            </Array>
          </mxGeometry>
        </mxCell>
        <mxCell id="41" value="No" style="curved=1;startArrow=none;endArrow=block;exitX=1;exitY=0.89;entryX=0.33;entryY=0;" edge="1" parent="1" source="9" target="18">
          <mxGeometry relative="1" as="geometry">
            <Array as="points">
              <mxPoint x="2040" y="352" />
            </Array>
          </mxGeometry>
        </mxCell>
        <mxCell id="42" value="" style="curved=1;startArrow=none;endArrow=block;exitX=0;exitY=0.66;entryX=0.61;entryY=1;" edge="1" parent="1" source="18" target="6">
          <mxGeometry relative="1" as="geometry">
            <Array as="points">
              <mxPoint x="2040" y="513" />
              <mxPoint x="1206" y="513" />
            </Array>
          </mxGeometry>
        </mxCell>
        <mxCell id="43" value="No" style="curved=1;startArrow=none;endArrow=block;exitX=1;exitY=0.71;entryX=0;entryY=0.2;" edge="1" parent="1" source="11" target="19">
          <mxGeometry relative="1" as="geometry">
            <Array as="points">
              <mxPoint x="2562" y="269" />
            </Array>
          </mxGeometry>
        </mxCell>
        <mxCell id="44" value="" style="curved=1;startArrow=none;endArrow=block;exitX=0;exitY=0.65;entryX=1;entryY=0.9;" edge="1" parent="1" source="19" target="11">
          <mxGeometry relative="1" as="geometry">
            <Array as="points">
              <mxPoint x="2562" y="317" />
            </Array>
          </mxGeometry>
        </mxCell>
        <mxCell id="45" value="No" style="curved=1;startArrow=none;endArrow=block;exitX=1;exitY=0.75;entryX=0.27;entryY=0.01;" edge="1" parent="1" source="12" target="20">
          <mxGeometry relative="1" as="geometry">
            <Array as="points">
              <mxPoint x="2864" y="210" />
            </Array>
          </mxGeometry>
        </mxCell>
        <mxCell id="46" value="" style="curved=1;startArrow=none;endArrow=block;exitX=0;exitY=0.8;entryX=0.65;entryY=1.01;" edge="1" parent="1" source="20" target="12">
          <mxGeometry relative="1" as="geometry">
            <Array as="points">
              <mxPoint x="2864" y="301" />
            </Array>
          </mxGeometry>
        </mxCell>
        <mxCell id="47" value="No" style="curved=1;startArrow=none;endArrow=block;exitX=1;exitY=0.86;entryX=0.35;entryY=0;" edge="1" parent="1" source="13" target="21">
          <mxGeometry relative="1" as="geometry">
            <Array as="points">
              <mxPoint x="3148" y="208" />
            </Array>
          </mxGeometry>
        </mxCell>
        <mxCell id="48" value="" style="curved=1;startArrow=none;endArrow=block;exitX=0;exitY=0.72;entryX=0.61;entryY=1.01;" edge="1" parent="1" source="21" target="12">
          <mxGeometry relative="1" as="geometry">
            <Array as="points">
              <mxPoint x="3148" y="340" />
              <mxPoint x="2864" y="340" />
            </Array>
          </mxGeometry>
        </mxCell>
        <mxCell id="49" value="" style="curved=1;startArrow=none;endArrow=block;exitX=1;exitY=0.5;entryX=0;entryY=0.5;" edge="1" parent="1" source="14" target="22">
          <mxGeometry relative="1" as="geometry">
            <Array as="points" />
          </mxGeometry>
        </mxCell>
      </root>
    </mxGraphModel>
  </diagram>
</mxfile>
